<svg width="277" height="165" viewBox="0 0 277 165" fill="none" xmlns="http://www.w3.org/2000/svg">
<mask id="mask0" mask-type="alpha" maskUnits="userSpaceOnUse" x="88" y="92" width="55" height="55">
<circle cx="115.5" cy="119.5" r="27.5" fill="#9B5B5B"/>
</mask>
<g mask="url(#mask0)">
<circle cx="115.5" cy="119.5" r="27.5" fill="#9B5B5B"/>
<path d="M96.5504 139.836C92.5846 134.647 92.6219 97.3151 126.168 93.2607" stroke="black" stroke-width="2"/>
<path d="M95.5398 101.064C111.34 107.483 125.437 119.269 138.061 135.265" stroke="black" stroke-width="2"/>
<path d="M108.105 92.2311C96.896 101.905 140.689 101.013 143.117 113.985" stroke="black" stroke-width="2"/>
<path d="M87.5378 117.651C104.027 91.7139 106.338 141.168 122.664 146.538" stroke="black" stroke-width="2"/>
</g>
<path d="M28.0772 103.386C27.3986 94.4244 26.7305 85.6255 26.0729 76.9894C25.7017 73.3785 25.3591 69.6273 25.0453 65.7359C24.7148 61.7827 24.3701 57.8997 24.011 54.0867C23.6519 50.2737 23.295 46.5926 22.9403 43.0435C22.5691 39.4326 22.2188 36.1473 21.8896 33.1876L36.6384 28.1424C36.747 32.7514 36.9052 37.5458 37.1132 42.5257C37.383 47.4889 37.6815 52.312 38.0086 56.9949L46.9155 53.5151C46.6049 48.894 46.243 44.4523 45.8297 40.1901C45.3999 35.866 45.1533 31.3603 45.09 26.6729C46.4456 26.0447 47.9723 25.4368 49.6701 24.8494C51.3514 24.2001 52.9172 23.6149 54.3678 23.0937C55.8183 22.5725 57.0299 22.1485 58.0024 21.8217C59.0202 21.4164 59.5291 21.2138 59.5291 21.2138C59.409 24.2276 59.3944 27.5112 59.4852 31.0648C59.6213 34.54 59.7988 38.1698 60.0177 41.954C60.2201 45.6765 60.4699 49.4525 60.7672 53.2821C61.0644 57.1116 61.3739 60.7391 61.6954 64.1646C62.4391 72.3801 63.3251 80.7562 64.3536 89.2929L50.3352 94.8381C50.145 90.9136 49.8869 87.1066 49.5609 83.4173C49.384 80.2843 49.174 77.0277 48.9308 73.6475C48.7495 70.2507 48.5378 67.3589 48.2958 64.9722L39.5248 68.2169C39.7215 70.682 39.9248 73.5428 40.1349 76.7994C40.4067 80.0395 40.6681 83.1167 40.9189 86.0311C41.1334 89.5515 41.3478 93.072 41.5623 96.5924L28.0772 103.386Z" fill="black"/>
<path d="M148.562 143.472C148.18 134.63 147.756 125.998 147.288 117.576C147.073 114.055 146.84 110.341 146.588 106.433C146.336 102.525 146.07 98.6873 145.789 94.9195C145.508 91.1518 145.23 87.516 144.954 84.0121C144.677 80.5083 144.383 77.3074 144.07 74.4096C145.714 73.3728 147.351 72.4371 148.983 71.6024C150.598 70.7059 152.26 69.8629 153.97 69.0734C155.742 68.2674 157.432 67.649 159.039 67.2183C161.821 66.4729 164.263 66.3154 166.366 66.7458C168.531 67.1596 170.416 68.0127 172.021 69.3053C173.61 70.5361 174.933 72.1361 175.991 74.1055C177.049 76.0748 177.901 78.2649 178.547 80.6759C179.474 84.1378 179.72 87.6499 179.283 91.2124C178.908 94.7583 177.978 98.0884 176.493 101.203C175.054 104.239 173.142 106.871 170.758 109.1C168.436 111.313 165.791 112.817 162.823 113.612L161.803 113.885C161.872 116.119 162.021 118.531 162.251 121.12C162.481 123.708 162.723 126.095 162.977 128.28C163.207 130.868 163.468 133.449 163.759 136.021L148.562 143.472ZM159.078 79.2336C159.491 83.4959 159.847 87.5418 160.144 91.3714C160.441 95.2009 160.743 99.2943 161.049 103.652C161.972 103.139 162.843 102.31 163.662 101.162C164.526 99.937 165.231 98.4891 165.778 96.8188C166.307 95.0867 166.594 93.1879 166.637 91.1224C166.679 89.0569 166.419 86.9733 165.856 84.8714C165.243 82.5841 164.254 80.994 162.888 80.101C161.585 79.1915 160.314 78.9023 159.078 79.2336Z" fill="black"/>
<path d="M218.893 99.9794C219.82 103.441 219.985 106.776 219.387 109.984C218.834 113.114 217.687 116.005 215.947 118.658C214.268 121.295 212.032 123.583 209.239 125.524C206.508 127.449 203.381 128.883 199.857 129.827C197.384 130.49 194.738 130.503 191.917 129.868C189.08 129.17 186.128 127.675 183.062 125.382L186.322 110.098C186.97 110.786 187.842 111.446 188.94 112.08C190.021 112.652 191.169 113.106 192.386 113.443C193.664 113.763 194.887 113.998 196.054 114.149C197.266 114.222 198.305 114.142 199.17 113.911C199.912 113.712 200.652 113.381 201.389 112.919C202.126 112.456 202.769 111.886 203.316 111.209C203.864 110.533 204.24 109.836 204.446 109.118C204.696 108.322 204.705 107.491 204.473 106.626C204.076 105.142 203.217 103.915 201.897 102.943C200.621 101.894 199.124 101.003 197.404 100.271C195.667 99.4774 193.807 98.717 191.823 97.9896C189.839 97.2623 187.963 96.44 186.193 95.5228C184.485 94.589 182.921 93.451 181.501 92.1087C180.082 90.7665 179.107 89.1062 178.577 87.128C177.715 83.9134 177.87 80.6584 179.041 77.3631C180.212 74.0677 181.954 71.0499 184.268 68.3097C186.627 65.4912 189.349 63.0391 192.434 60.9535C195.52 58.8679 198.577 57.4192 201.606 56.6076C203.275 56.1603 204.91 55.9543 206.509 55.9895C208.092 55.9629 209.533 56.2724 210.833 56.9181C212.177 57.4854 213.341 58.3663 214.324 59.5606C215.368 60.7385 216.164 62.3474 216.71 64.3874C216.942 65.2529 217.081 66.1432 217.128 67.0584C217.236 67.957 217.361 68.9174 217.502 69.9396L205.1 77.437C205.091 76.9093 205.052 76.3899 204.981 75.8788C204.972 75.3511 204.901 74.84 204.769 74.3454C204.272 72.4908 203.576 71.2528 202.68 70.6314C201.83 69.9316 200.88 69.7225 199.829 70.0041C199.334 70.1366 198.766 70.4877 198.123 71.0574C197.543 71.6105 196.964 72.2955 196.388 73.1125C195.857 73.8511 195.452 74.6885 195.173 75.6246C194.894 76.5608 194.878 77.4925 195.127 78.4198C195.524 79.9035 196.257 81.0322 197.326 81.806C198.457 82.5632 199.756 83.2088 201.224 83.743C202.693 84.2772 204.262 84.8175 205.932 85.3638C207.648 85.8317 209.314 86.6109 210.932 87.7015C212.549 88.792 214.049 90.3115 215.433 92.2598C216.861 94.1298 218.015 96.703 218.893 99.9794Z" fill="black"/>
<path d="M230.11 120.031L229.381 100.25C228.669 97.5917 227.837 94.7337 226.885 91.6758C225.978 88.5396 225.01 85.42 223.98 82.3169C222.95 79.2138 221.952 76.2343 220.988 73.3785C220.008 70.4609 219.158 67.9059 218.438 65.7135C217.701 63.4594 217.089 61.6688 216.601 60.3419C216.113 59.015 215.869 58.3516 215.869 58.3516L229.443 48.5524L232.474 59.8653C232.888 61.4108 233.311 62.9872 233.741 64.5945C234.172 66.2018 234.564 67.7865 234.916 69.3485C235.33 70.894 235.719 72.3467 236.084 73.7068C236.448 75.0668 236.755 76.2104 237.003 77.1377C237.244 74.8205 237.506 71.9674 237.791 68.5783C238.137 65.1726 238.415 61.8845 238.626 58.7139C238.889 54.9991 239.134 51.0906 239.36 46.9884L254.603 46.3826C253.369 52.4114 252.189 58.3926 251.062 64.3264C250.624 66.8953 250.149 69.5735 249.637 72.361C249.109 75.0867 248.588 77.8433 248.076 80.6308C247.548 83.3564 247.034 86.012 246.534 88.5975C246.034 91.1829 245.585 93.589 245.188 95.8157C245.31 97.5058 245.38 99.3753 245.399 101.424C245.48 103.457 245.536 105.396 245.567 107.243C245.557 109.432 245.516 111.63 245.445 113.835L230.11 120.031Z" fill="black"/>
<path d="M130.534 56.6448C126.823 60.3557 122.908 63.4556 118.79 65.9447C114.762 68.4337 110.712 70.4023 106.639 71.8504C102.612 73.2533 98.6291 74.1584 94.6919 74.5657C90.8453 74.973 87.2022 74.9956 83.7629 74.6336C80.3688 74.2263 77.2914 73.457 74.5309 72.3256C71.8156 71.149 69.5755 69.6782 67.8105 67.9132C66.3171 66.4198 65.231 64.7907 64.5522 63.0257C63.9186 61.2155 63.6924 59.3148 63.8734 57.3236C64.0996 55.2871 64.8011 53.1375 65.9777 50.8748C67.2449 48.6121 69.1003 46.2588 71.5441 43.815C74.0783 41.2808 77.0652 38.9275 80.5045 36.7553C83.9439 34.5831 87.5869 32.6597 91.4336 30.9853C95.2802 29.3109 99.24 28.0211 103.313 27.116C107.386 26.2109 111.323 25.7584 115.124 25.7584C118.971 25.7131 122.546 26.2109 125.85 27.2518C129.153 28.2926 131.982 29.9897 134.335 32.3429C136.372 34.3794 137.616 36.4838 138.069 38.656C138.612 40.8282 138.566 42.9552 137.933 45.0369C137.39 47.1186 136.44 49.1551 135.082 51.1463C133.724 53.1375 132.208 54.9704 130.534 56.6448ZM83.4235 52.1646C82.9257 52.6624 82.4957 53.2733 82.1337 53.9974C81.7717 54.7215 81.5454 55.4455 81.4549 56.1696C81.3644 56.8937 81.387 57.6404 81.5228 58.4097C81.749 59.1791 82.1337 59.8353 82.6768 60.3783C84.7132 62.4148 87.2249 63.5235 90.2117 63.7046C93.1985 63.8856 96.2306 63.4783 99.3079 62.4827C102.385 61.4871 105.349 60.1068 108.2 58.3418C111.097 56.6222 113.495 54.812 115.396 52.9113C115.939 52.3682 116.482 51.7346 117.025 51.0106C117.613 50.3317 118.066 49.6077 118.383 48.8383C118.745 48.1143 118.881 47.3449 118.79 46.5303C118.79 45.7157 118.428 44.9464 117.704 44.2223C116.256 42.7742 114.559 41.8012 112.613 41.3034C110.667 40.8056 108.585 40.6698 106.368 40.8961C104.241 41.1224 102.046 41.6428 99.7831 42.4574C97.5656 43.2267 95.3934 44.1318 93.2664 45.1727C91.2299 46.2136 89.3518 47.3676 87.6322 48.6347C85.9125 49.9018 84.5096 51.0784 83.4235 52.1646Z" fill="black"/>
<path d="M67 63.9614C67 63.9614 83.068 75.5369 93.0169 102.716M72.5612 62.3352C72.5612 62.3352 89.1295 75.6789 99.0784 102.858M78.1224 60.7091C78.1224 60.7091 94.9958 74.954 104.945 102.133M88.2446 65.6639C88.2446 65.6639 103.151 77.4755 110.53 100.948M94.7491 65.3989C94.7491 65.3989 108.685 76.6259 115.534 99.3315M100.703 64.3391C100.703 64.3391 114.195 74.4783 120.823 96.8648M104.945 60.8914C104.945 60.8914 118.033 69.5244 125.45 92.9359M110.586 59.5791C110.586 59.5791 122.994 66.1068 129.891 89.5137M92.0718 66.3831C92.0718 66.3831 88.0692 78.9564 93.0724 102.858M97.6329 64.7569C97.6329 64.7569 94.1307 79.0984 99.1339 103M103.194 63.1308C103.194 63.1308 99.9969 78.3735 105 102.275M108.755 61.5046C108.755 61.5046 105.583 77.1882 110.586 101.09M114.316 59.8785C114.316 59.8785 110.586 75.5719 115.589 99.4735M119.878 58.2523C119.878 58.2523 115.875 73.1053 120.878 97.0069M125.439 56.6262C125.439 56.6262 120.436 69.1994 125.439 93.101M131 55C131 55 125.095 65.6933 130.099 89.5949" stroke="black"/>
</svg>
