<svg width="816" height="474" viewBox="0 0 816 474" fill="none" xmlns="http://www.w3.org/2000/svg">
<path d="M29.3501 270.723C27.9059 270.979 26.6429 270.729 25.561 269.973C24.4792 269.216 23.8103 268.116 23.5544 266.672L0.872385 138.666C0.616485 137.222 0.866622 135.959 1.6228 134.877C2.51025 133.772 3.61043 133.103 4.92331 132.87L30.3276 128.369C31.7717 128.113 33.0348 128.363 34.1166 129.119C35.3298 129.852 36.0643 130.941 36.3202 132.385L44.73 179.846L93.1753 171.261L84.7655 123.801C84.5096 122.357 84.7598 121.093 85.5159 120.012C86.2721 118.93 87.3723 118.261 88.8165 118.005L114.221 113.503C115.665 113.248 116.928 113.498 118.01 114.254C119.092 115.01 119.76 116.11 120.016 117.554L142.698 245.56C142.954 247.005 142.704 248.268 141.948 249.349C141.192 250.431 140.092 251.1 138.647 251.356L113.243 255.858C111.799 256.113 110.536 255.863 109.454 255.107C108.372 254.351 107.703 253.251 107.448 251.807L98.7586 202.771L50.3132 211.355L59.0022 260.391C59.2581 261.835 58.9423 263.11 58.0548 264.215C57.2987 265.297 56.1985 265.966 54.7543 266.221L29.3501 270.723Z" fill="black"/>
<path d="M444.361 403.797C443.048 404.029 441.785 403.779 440.572 403.046C439.467 402.159 438.798 401.059 438.566 399.746L415.884 271.74C415.628 270.296 415.878 269.033 416.634 267.951C417.522 266.846 418.622 266.177 419.935 265.945L475.076 256.174C491.881 253.196 505.761 254.731 516.718 260.779C527.806 266.804 534.664 277.234 537.293 292.069C539.898 306.773 537.072 318.716 528.814 327.898C520.533 336.948 507.924 342.974 490.988 345.975L467.553 350.127L475.195 393.255C475.451 394.7 475.135 395.974 474.248 397.079C473.492 398.161 472.391 398.83 470.947 399.086L444.361 403.797ZM485.188 318.973C490.964 317.949 495.238 315.702 498.008 312.232C500.755 308.631 501.617 303.943 500.594 298.166C499.64 292.783 497.308 288.795 493.599 286.203C489.998 283.456 485.112 282.629 478.941 283.722L455.9 287.805L462.147 323.055L485.188 318.973Z" fill="black"/>
<path d="M624.269 373.949C611.796 376.159 600.771 376.217 591.192 374.123C581.613 372.029 574.003 368.435 568.361 363.341C562.827 358.093 559.301 351.947 557.782 344.904C557.596 343.854 557.827 342.865 558.475 341.938C559.231 340.856 560.2 340.21 561.382 340.001L586.194 335.604C587.77 335.325 589.075 335.432 590.111 335.926C591.254 336.265 592.455 336.932 593.715 337.928C596.027 341.039 599.284 343.373 603.487 344.93C607.69 346.487 612.942 346.708 619.244 345.591C626.727 344.265 632.229 342.072 635.749 339.01C639.269 335.949 640.668 332.384 639.947 328.314C639.435 325.426 637.966 323.248 635.54 321.783C633.245 320.294 629.803 319.211 625.215 318.534C620.626 317.858 613.902 317.357 605.043 317.031C588.707 316.54 576.042 313.842 567.048 308.936C558.162 303.875 552.673 295.437 550.579 283.622C549.16 275.613 550.123 268.062 553.47 260.97C556.818 253.877 562.313 247.825 569.956 242.815C577.599 237.804 586.934 234.322 597.963 232.368C609.385 230.344 619.646 230.557 628.746 233.007C637.847 235.457 645.098 239.317 650.501 244.589C656.011 249.706 659.41 255.129 660.696 260.859C660.905 262.041 660.686 263.096 660.038 264.023C659.39 264.95 658.475 265.519 657.293 265.728L631.298 270.334C629.723 270.613 628.363 270.583 627.22 270.244C626.208 269.882 625.203 269.18 624.206 268.138C622.883 265.258 620.263 263.081 616.346 261.609C612.561 260.113 608.108 259.819 602.987 260.726C597.079 261.773 592.736 263.626 589.957 266.285C587.179 268.944 586.15 272.308 586.871 276.378C587.36 279.135 588.62 281.282 590.653 282.817C592.816 284.33 596.007 285.524 600.225 286.402C604.551 287.125 610.595 287.611 618.358 287.861C630.963 287.929 641.178 289.03 649.004 291.164C656.938 293.143 663.088 296.522 667.455 301.3C671.8 305.947 674.681 312.274 676.1 320.283C677.659 329.079 676.46 337.213 672.503 344.685C668.654 352.002 662.514 358.235 654.083 363.385C645.76 368.381 635.822 371.902 624.269 373.949Z" fill="black"/>
<path d="M737.897 351.784C736.584 352.016 735.321 351.766 734.108 351.033C733.003 350.146 732.334 349.046 732.102 347.733L724.599 305.392L663.976 229.202C663.372 228.09 663.048 227.403 663.001 227.14C662.815 226.09 663.046 225.101 663.694 224.174C664.45 223.092 665.419 222.446 666.601 222.237L691.217 217.875C693.843 217.41 696.385 218.381 698.843 220.789L736.007 266.608L755.362 210.774C756.449 207.738 758.503 205.952 761.522 205.417L786.139 201.055C787.32 200.846 788.386 201.131 789.337 201.91C790.264 202.559 790.821 203.408 791.007 204.458C791.123 205.115 791.12 205.86 790.997 206.694L760.244 299.076L767.746 341.417C768.002 342.861 767.686 344.136 766.799 345.241C766.043 346.323 764.943 346.991 763.499 347.247L737.897 351.784Z" fill="black"/>
<path d="M151.563 201.681C148.769 191.696 153.403 181.923 165.465 172.362C177.527 162.801 196.779 154.129 223.223 146.347C228.947 144.669 237.454 142.25 248.745 139.09C260.233 135.875 268.86 133.499 274.624 131.962C300.869 124.999 321.836 122.453 337.524 124.324C353.431 126.21 362.751 132.04 365.486 141.813C368.221 151.585 363.281 161.406 350.664 171.275C338.245 181.088 319.003 189.795 292.936 197.396C281.487 200.753 272.891 203.235 267.146 204.843C261.6 206.395 253.063 208.707 241.535 211.781C214.894 218.855 193.937 221.436 178.664 219.525C163.391 217.614 154.358 211.666 151.563 201.681ZM194.348 189.707C195.438 193.602 199.568 195.768 206.739 196.205C213.93 196.712 224.279 195.152 237.788 191.524C249.316 188.451 257.457 186.249 262.211 184.919C267.361 183.477 275.462 181.134 286.515 177.888C299.945 173.977 309.601 169.938 315.483 165.772C321.366 161.605 323.772 157.61 322.702 153.786C321.632 149.962 317.501 147.796 310.311 147.289C303.14 146.852 292.79 148.412 279.262 151.969C273.696 153.45 265.565 155.688 254.868 158.681C244.37 161.619 236.259 163.927 230.535 165.606C217.125 169.588 207.469 173.626 201.566 177.722C195.664 181.817 193.258 185.812 194.348 189.707Z" fill="black"/>
<circle cx="328.117" cy="351.459" r="67.5" fill="black" stroke="white" stroke-width="5"/>
<path d="M285.276 403.459C275.924 390.758 276.012 299.383 355.117 289.459" stroke="white" stroke-width="5"/>
<path d="M276.117 308.459C315.505 323.849 350.647 352.107 382.117 390.459" stroke="white" stroke-width="5"/>
<path d="M308.642 287.459C280.957 313.696 389.12 311.277 395.117 346.459" stroke="white" stroke-width="5" stroke-linecap="square"/>
<path d="M261.117 351.317C300.549 292.827 306.076 404.349 345.117 416.459" stroke="white" stroke-width="5"/>
<path d="M155.5 203.458C195.015 233.973 220.929 259.373 245.19 304.5C274.004 261.343 295.362 234.755 312.69 180.5M194.419 211.148C237.771 250.645 270.19 252.5 312.69 282C323.19 232 348.054 208.276 343.19 163.5M230.979 203.458C263.415 234.363 310.482 248.344 367.19 270.5C355.014 232.645 350.515 208.908 361.19 143" stroke="black" stroke-width="5"/>
<path d="M226.69 279C262.8 259.044 260.874 217.406 284.69 191.5C310.25 197.962 325.817 213.091 352.69 210.5M207.19 251C238.952 239.421 234.4 214.199 247.358 202.339M357.69 246.5C309.396 240.124 284.205 214.301 262.366 197.994" stroke="black" stroke-width="5"/>
</svg>
