<svg width="30em" viewBox="0 0 281 209" fill="none" xmlns="http://www.w3.org/2000/svg">
<path d="M27 192.5C31.8063 196.422 36.0597 197.736 41 198.5M34 180.5C38.3121 185.69 40.8847 186.304 45.5 187M228 92C237.89 93.9005 239.425 96.4736 241 101.5M234.5 87.5C243.655 88.642 246.779 90.7647 247 98.5" stroke="black"/>
<path d="M86 75.8L98.2553 67C101.223 74.4981 99.0319 79.5019 102 87" stroke="black"/>
<path d="M210.5 120.5C211.286 123.419 211.349 124.967 210.5 127.5M204.5 110C206.317 110.589 207.059 111.037 208 112M95.5 133.5C97.3725 136.149 99.9669 137.287 106 139M165.5 75.5C167.588 80.1017 167 95.5001 167.5 94.0001M160.5 120.5C159 121 161.7 120.003 162 119.5M133 74C133.713 75.7386 123.955 65.4798 118.5 57.4365M115 50.5C115.256 52.164 116.623 54.6691 118.5 57.4365M115 50.5H104.5M115 50.5C120.463 54.274 123.529 55.0462 129 54.77M81.5 29.5C84.1034 39.7866 86.0168 45.4103 84.5 57C82.3962 60.8594 80.7843 62.4388 75.5 62C70.4394 60.088 68.7248 53.0083 66.5 43.5M81.5 29.5C85.8365 26.9148 90.9558 24.5614 95.5 23.3402M81.5 29.5C81.5 29.5 77 27.5 78 26M66.5 43.5L69.5 41.5C69.5 41.5 68 39 67 38C66 37 60 43 59 44C58 45.0001 53.5 45 53.5 45M66.5 43.5C60.8775 40.9721 59.826 43.6655 59.5 44C59.5 44 62.5 69.5 66.5 72.5C67.9724 73.6044 73.1034 77.4865 79 81.9517M101.5 99.0001C101.5 99.0001 89.1221 89.6168 79 81.9517M95.5 23.3402C99.077 22.3789 102.298 22.1191 104.5 23C109.5 25 120.75 29.5 122 36C131.428 37.0283 136.183 39.4111 143.357 47.5M95.5 23.3402C89.629 28.7469 88.2706 33.091 90.5 44C94.4235 51.3269 99.8269 54.3827 112 59C115.356 59.705 116.849 59.4745 118.5 57.4365M143.357 47.5C155.908 48.8277 161.038 51.8619 167.5 60.5C168.865 65.0374 168.014 66.2233 165.5 67.5C164.281 67.3912 163.615 67.7346 162.5 67.5M143.357 47.5H122C120.048 48.6717 120.179 48.8284 123 50C123 50 135.5 50.5 135 51.5C134.74 52.0194 131.783 53.4831 129 54.77M129 54.77C126.425 55.9607 124 57 124 57C123.576 58.6383 122.902 60.0549 125.5 59C125.5 59 135.5 54 136.5 54C137.5 54 129 60.5 129 60.5C129.12 62.3347 128.617 62.8531 131 62C131 62 137.5 55 138 55.5C138.5 56 136 63 136 63C136.272 64.497 136.687 64.5668 138 63L140.5 57.4365L146 55.5C149.274 61.0705 154.976 65.9178 162.5 67.5M139.797 59C146.42 63.8925 152.865 65.6222 162.5 67.5M77 143L81.5 153.5L79 172C79.1045 174.741 79.8318 173.955 81 173C81.5722 170.971 82.0774 169.18 82.5513 167.5M85.5 138L86.5 144L95.5 160C95.8373 161.356 95.5615 161.499 94.5 161L90.5 157.25M82.5513 167.5L83.5 177C84.3575 178.833 84.7941 178.804 85.5 177L84.0933 162.033M82.5513 167.5C83.0882 165.597 84.0933 162.033 84.0933 162.033M84.0933 162.033C84 161.5 85.5725 156.789 86.5 153.5L90.5 157.25M84.0933 162.033L88.5 174C90.4625 177.051 90.5959 175.77 91 174C91 174 84 159.5 85.5 160C87 160.5 93.5 171 93.5 171C94.9142 172.715 95.3015 172.578 95.5 171C95.5 171 89.5 160.5 89 159C88.5 157.5 90.5 157.25 90.5 157.25M53.5 45C49.2094 57.46 53.1867 60.9115 59.5 67.5C62.3598 92.282 64.772 104.074 69.5 124M53.5 45C52.1741 45 50.9094 41.9062 50.0139 39M79 81.9517C79.1844 94.614 80.1017 101.626 83 114M50.0139 39C49.2209 36.4264 48.7174 34 48.7174 34C48.7174 34 46.4144 34.4994 44.5 33C44.4803 31.5399 44.9726 28.5285 46.5 26V22V20M50.0139 39C52.4145 38.5175 53.505 37.9759 54.5 36M55.5 13.5L49.7174 17.5L46.5 20M55.5 13.5H56.5M55.5 13.5C55.9218 15.9701 56.5578 17.3202 58.5 19.6599C58.5 19.6599 59.5 14.5 60 13.5C60.5 12.5001 63.5 19 63.5 19C63.5 19 63.5 13.5 64.5 13.5C65.5 13.5 69.5 19.7933 69.5 19.7933M46.5 20C46.5 20 49.7174 13.5 48.7174 13.5C47.7174 13.5 43.5 18.5 43.5 18.5C43.5 18.5 45.5 10.0001 46.5 8.50004C47.5 7 54.5 5.00004 54.5 5.00004C58.8467 2.25495 61.2156 0.599968 68 2.00004C68 2.00004 79 6.00004 80 10.5C81 15 80 20 80 20L78 26M78 26L74 24.5M70.5 28C73.5815 28.2059 73.483 28.8957 74 24.5M74 24.5C74 24.5 71.1599 20.5724 69.5 19.7933M65.5 22C66.3261 19.0782 67.5 19.6599 69 19.6599C69.1488 19.6599 69.3172 19.7075 69.5 19.7933" stroke="black"/>
<path d="M163.5 93.5L204 110L217 98.5L234.5 88L237.5 79C238.223 79.2888 264 87.2992 264 87.2992C264 87.2992 280.407 92.9105 279.5 93.5C277.404 94.8626 256.545 98.9227 247 98.5C246.717 95.8336 210.21 128.27 204 133C197.79 137.73 176.917 127.691 160 118" stroke="black"/>
<path d="M164 93.5H163" stroke="black"/>
<path d="M84 113.658C84 113.658 59 131.5 57.5 135C57.3213 135.417 56.7311 136.65 55.8215 138.5M84 113.658L132 75C146.109 72.842 152.864 73.6731 165 75L159.5 120.5C159.5 120.5 151.265 119.341 136 115L106 138.5C106 138.5 103.5 136 99.3581 131M84 113.658C92.471 119.665 96.8481 123.148 99.3581 131M99.3581 131L76 143.5C70.2062 160.29 65.8832 165.856 56 168C44.2541 187.959 40.7008 196.865 40 208.5H2C7.46854 203.06 15.5 201.5 20.5 200.5C24.9044 199.619 49.0954 152.182 55.8215 138.5M55.8215 138.5C55.4782 141.09 55.9873 142.283 58 144" stroke="black"/>
<path d="M47 21C58.8003 21.165 64.8691 21.0695 66.5 20M49.5 18C52.4289 18 54.0711 18 57 18M59.5 18C61.923 17.7928 63.0833 17.7286 67.5 17" stroke="var(--color2)"/>
<path d="M97 79.5L103.5 76" stroke="black"/>
<circle cx="52" cy="25" r="1" fill="black"/>
<path d="M49 24C51.7781 23.2292 53.0516 23.6569 55.2647 24.5962" stroke="black"/>
<path d="M108 125.5C115.225 121.399 119.275 119.101 126.5 115M142 87L157.5 90.5" stroke="black"/>
</svg>
