<svg width="30em" viewBox="0 0 877 652" fill="none" xmlns="http://www.w3.org/2000/svg">
<path d="M129.5 619C114.081 616.617 99.2674 612.762 84.2669 600.526L106.114 563.091C119.572 579.282 128.096 580.829 142.5 583L129.5 619Z" fill="var(--color1)"/>
<path d="M752.5 318C747.584 302.32 742.454 292.934 711.587 287.005L731.874 274.5V272.967C760.446 276.529 770.196 283.151 770.886 307.282H769L752.5 318Z" fill="var(--color1)"/>
<path d="M129.5 619C114.081 616.617 99.2674 612.762 84.2669 600.526L106.114 563.091C119.572 579.282 128.096 580.829 142.5 583L129.5 619Z" stroke="black"/>
<path d="M752.5 318C747.584 302.32 742.454 292.934 711.587 287.005L731.874 274.5V272.967C760.446 276.529 770.196 283.151 770.886 307.282H769L752.5 318Z" stroke="black"/>
<path d="M656.97 375.914C659.423 385.02 659.619 389.849 656.97 397.751M637 342.5C642.671 344.337 646.23 346.393 649.167 349.397M297.5 415.5C303.344 423.764 311.671 426.156 330.5 431.5M515 234C521.517 248.356 519.94 300.679 521.5 296M498 376C498 376 503.564 372.569 504.5 371M369.838 179.18L358.915 157.541M369.838 179.18C364.685 185.538 360.026 186.257 349.552 184.058C311.559 169.653 294.695 160.121 282.45 137.263C275.492 103.232 279.732 89.6796 298.055 72.8127M369.838 179.18C384.846 201.3 408.665 230.459 412.573 233.342M358.915 157.541H326.144M358.915 157.541C375.965 169.314 385.534 171.723 402.609 170.862M402.609 170.862C411.294 166.847 420.523 162.281 421.335 160.661C422.895 157.541 383.883 155.981 383.883 155.981C375.078 152.326 374.669 151.837 380.762 148.182H447.417M402.609 170.862C394.572 174.576 387.004 177.818 387.004 177.818C385.68 182.929 383.577 187.349 391.685 184.058C391.685 184.058 422.895 168.46 426.016 168.46C429.137 168.46 402.609 188.737 402.609 188.737C402.983 194.461 401.413 196.078 408.851 193.417C408.851 193.417 429.137 171.579 430.698 173.139C432.258 174.699 424.456 196.536 424.456 196.536C425.304 201.206 426.6 201.424 430.698 196.536L438.5 179.18L455.665 173.139C465.884 190.517 483.68 205.639 507.162 210.574M254.361 92.029C262.486 124.119 268.458 141.663 263.724 177.818C257.158 189.858 252.128 194.785 235.635 193.417C219.841 187.452 214.49 165.366 207.546 135.704M254.361 92.029C267.895 83.9641 283.873 76.6224 298.055 72.8127M254.361 92.029C254.361 92.029 240.317 85.7897 243.438 81.1103M207.546 135.704L216.909 129.464C216.909 129.464 212.228 121.665 209.107 118.546C205.986 115.426 187.26 134.144 184.139 137.263C181.018 140.383 166.973 140.383 166.973 140.383M207.546 135.704L185.814 138.21M298.055 72.8127C309.219 69.8139 319.272 69.0034 326.144 71.7514C341.749 77.9907 376.86 92.029 380.762 112.306C410.186 115.514 425.027 122.948 447.417 148.182M243.438 81.1103L249.68 62.3926C249.68 62.3926 252.801 46.7945 249.68 32.7562C246.559 18.7181 212.228 6.23961 212.228 6.23961C191.054 1.87192 183.66 7.03483 170.094 15.5985C170.094 15.5985 148.247 21.8376 145.126 26.5171C142.005 31.1967 135.763 57.7132 135.763 57.7132C135.763 57.7132 148.926 42.1151 152.047 42.1151C155.168 42.1151 145.126 62.3926 145.126 62.3926M243.438 81.1103L230.954 76.4309M166.973 140.383C153.582 179.253 165.996 190.021 185.699 210.574C194.625 287.885 202.244 325.339 217 387.5M166.973 140.383C162.835 140.383 158.888 130.732 156.093 121.665M166.973 140.383L185.814 138.21M185.699 137.263C185.699 137.263 185.738 137.592 185.814 138.21M246.559 255.658C228.155 241.728 212.142 229.618 207.546 226.173C195.865 217.415 186.916 147.202 185.814 138.21M246.559 255.658C278.15 279.57 317.5 309.5 317.5 309.5M246.559 255.658L317.5 309.5M246.559 255.658C247.134 295.16 250.454 317.398 259.5 356M317.5 309.5L412.573 233.342M447.417 148.182C486.588 152.324 502.599 161.79 522.767 188.737C527.027 202.892 524.371 206.592 516.525 210.574C512.72 210.235 510.642 211.306 507.162 210.574M507.162 210.574C477.091 204.716 456.976 199.32 436.306 184.058M240.317 446.106L254.361 478.862L246.559 536.574C246.885 545.125 249.155 542.673 252.801 539.694C254.587 533.364 256.163 527.777 257.642 522.536M257.642 522.536L260.603 552.173C263.279 557.891 264.642 557.8 266.845 552.173L262.455 505.481M257.642 522.536L262.455 505.481M257.642 522.536C259.318 516.6 262.455 505.481 262.455 505.481M266.5 431.5L269.966 449.225L298.055 499.139C299.108 503.369 298.247 503.815 294.934 502.259L282.45 490.56M282.45 490.56L269.966 478.862C267.071 489.122 262.164 503.819 262.455 505.481M282.45 490.56C282.45 490.56 276.208 491.34 277.769 496.019C279.329 500.699 298.055 533.455 298.055 533.455C297.436 538.378 296.227 538.805 291.813 533.455C291.813 533.455 271.527 500.699 266.845 499.139C262.164 497.579 284.011 542.814 284.011 542.814C282.749 548.335 282.333 552.332 276.208 542.814L262.455 505.481M156.093 121.665C153.618 113.637 152.047 106.067 152.047 106.067C152.047 106.067 144.859 107.625 138.884 102.948C138.823 98.3927 140.359 88.9983 145.126 81.1103V68.6318V62.3926M156.093 121.665C163.585 120.16 166.989 118.471 170.094 112.306M145.126 62.3926L155.168 54.5936L173.215 42.1151M145.126 62.3926L173.215 42.1151M173.215 42.1151H176.336M173.215 42.1151C174.532 49.8209 176.517 54.0327 182.578 61.3316C182.578 61.3316 185.699 45.2347 187.26 42.1151C188.82 38.9958 197.5 54.5936 197.5 54.5936C197.5 54.5936 198.183 42.1151 201.304 42.1151C204.425 42.1151 216.909 61.7478 216.909 61.7478M216.909 61.7478C222.09 64.1783 230.954 76.4309 230.954 76.4309M216.909 61.7478L230.954 76.4309M216.909 61.7478C216.339 61.4801 215.813 61.3316 215.349 61.3316C210.667 61.3316 207.004 59.5169 204.425 68.6318M230.954 76.4309C229.34 90.1438 229.648 87.9919 220.03 87.3495M412.573 233.342L413 233C413.264 233.643 413.098 233.73 412.573 233.342Z" stroke="black"/>
<path d="M268.406 236.467L306.654 209.014C315.917 232.406 309.078 248.016 318.342 271.407" stroke="black"/>
<path d="M510.283 291.684L636.683 343.158L677.256 307.282L731.874 274.526L741.237 246.45C743.493 247.351 823.943 272.34 823.943 272.34C823.943 272.34 875.149 289.845 872.319 291.684C865.777 295.935 800.676 308.601 770.886 307.282C770.003 298.964 656.065 400.153 636.683 414.909C617.302 429.665 551.798 398.232 499 368" stroke="black"/>
<path d="M511.843 291.684H508.722" stroke="black"/>
<path d="M262.164 354.569C262.164 354.569 184.139 410.23 179.457 421.148C178.9 422.449 177.058 426.296 174.219 432.067M262.164 354.569L411.972 233.971C456.006 227.239 477.088 229.832 514.964 233.971L497.799 375.914C497.799 375.914 472.098 372.298 424.456 358.756L330.826 432.067C330.826 432.067 323.023 424.268 310.096 408.67M262.164 354.569C288.602 373.309 302.263 384.174 310.096 408.67M174.219 432.067C153.227 474.749 77.7266 622.735 63.9804 625.483C48.3755 628.603 23.3093 633.469 6.242 650.44H124.84C127.027 614.143 138.117 586.36 174.776 524.096C205.621 517.407 219.113 500.043 237.196 447.665L310.096 408.67M174.219 432.067C173.147 440.147 174.736 443.868 181.018 449.225" stroke="black"/>
<path d="M153.049 56.1989C162.478 56.1989 168.57 56.1989 178 56.1989M153.049 56.1989H178M153.049 56.1989L145.5 62L145 65.7955C145 65.7955 202.53 66.0178 207.78 62.5966L210 61H216.5L211 53C196.78 55.3307 191.801 55.5361 184 56.1989L182.5 61L178 56.1989" stroke="black" fill="var(--color2)"/>
<path d="M302.737 248.009L323.023 237.091" stroke="black"/>
<path d="M162.292 81.1101C164.015 81.1101 165.413 79.7134 165.413 77.9905C165.413 76.2675 164.015 74.8708 162.292 74.8708C160.568 74.8708 159.171 76.2675 159.171 77.9905C159.171 79.7134 160.568 81.1101 162.292 81.1101Z" fill="black"/>
<path d="M152.929 74.871C161.599 72.4664 165.574 73.8006 172.481 76.7309" stroke="black"/>
<path d="M443.181 271.407L491.557 282.325M337.068 391.512C359.617 378.718 372.257 371.55 394.806 358.756L337.068 391.512Z" stroke="black"/>
</svg>
